<svg width="399" height="137" viewBox="0 0 399 137" fill="none" xmlns="http://www.w3.org/2000/svg">
<circle cx="352.338" cy="46.5" r="46.5" fill="#FF7800"/>
<path d="M323.03 51.5999C324.246 51.5999 325.286 52.0479 326.15 52.9439C327.046 53.8079 327.494 54.8479 327.494 56.0639C327.494 57.2799 327.046 58.3359 326.15 59.2319C325.286 60.0959 324.246 60.5279 323.03 60.5279C321.814 60.5279 320.758 60.0959 319.862 59.2319C318.998 58.3359 318.566 57.2799 318.566 56.0639C318.566 54.8479 318.998 53.8079 319.862 52.9439C320.758 52.0479 321.814 51.5999 323.03 51.5999Z" fill="white"/>
<path d="M339.725 60.4319C337.037 60.4319 334.829 59.6959 333.101 58.2239C331.373 56.7519 330.509 54.8639 330.509 52.5599C330.509 50.1599 331.421 48.2879 333.245 46.9439C335.101 45.5999 337.677 44.9279 340.973 44.9279C341.965 44.9279 342.941 44.9919 343.901 45.1199C344.861 45.2479 345.805 45.4239 346.733 45.6479V44.3999C346.733 43.1199 346.317 42.1759 345.485 41.5679C344.685 40.9279 343.485 40.6079 341.885 40.6079C340.893 40.6079 339.773 40.7679 338.525 41.0879C337.277 41.4079 335.837 41.9199 334.205 42.6239L331.421 36.9119C333.469 35.9839 335.469 35.2959 337.421 34.8479C339.405 34.3679 341.357 34.1279 343.277 34.1279C346.797 34.1279 349.533 34.9759 351.485 36.6719C353.437 38.3359 354.413 40.6879 354.413 43.7279V59.9999H346.733V58.4639C345.709 59.1679 344.621 59.6799 343.469 59.9999C342.349 60.2879 341.101 60.4319 339.725 60.4319ZM337.901 52.4159C337.901 53.2159 338.253 53.8399 338.957 54.2879C339.661 54.7359 340.637 54.9599 341.885 54.9599C342.813 54.9599 343.677 54.8639 344.477 54.6719C345.309 54.4799 346.061 54.1759 346.733 53.7599V50.4959C345.997 50.3039 345.245 50.1599 344.477 50.0639C343.709 49.9679 342.925 49.9199 342.125 49.9199C340.781 49.9199 339.741 50.1439 339.005 50.5919C338.269 51.0079 337.901 51.6159 337.901 52.4159Z" fill="white"/>
<path d="M382.315 56.6399C380.715 57.9839 379.067 58.9599 377.371 59.5679C375.707 60.1759 373.819 60.4799 371.707 60.4799C369.787 60.4799 367.979 60.1439 366.283 59.4719C364.587 58.7999 363.115 57.8719 361.867 56.6879C360.651 55.5039 359.675 54.1119 358.939 52.5119C358.235 50.8799 357.883 49.1519 357.883 47.3279C357.883 45.5039 358.219 43.7919 358.891 42.1919C359.595 40.5599 360.539 39.1519 361.723 37.9679C362.907 36.7839 364.299 35.8559 365.899 35.1839C367.531 34.5119 369.275 34.1759 371.131 34.1759C372.987 34.1759 374.699 34.5279 376.267 35.2319C377.835 35.9359 379.179 36.8959 380.299 38.1119C381.451 39.3279 382.347 40.7999 382.987 42.5279C383.627 44.2239 383.947 46.0639 383.947 48.0479V49.9679H365.851C366.363 51.1519 367.163 52.1279 368.251 52.8959C369.339 53.6319 370.619 53.9999 372.091 53.9999C373.147 53.9999 374.107 53.8399 374.971 53.5199C375.835 53.1679 376.571 52.6879 377.179 52.0799L382.315 56.6399ZM370.987 40.5119C369.707 40.5119 368.603 40.8639 367.675 41.5679C366.747 42.2719 366.091 43.2639 365.707 44.5439H376.315C375.899 43.3279 375.211 42.3519 374.251 41.6159C373.323 40.8799 372.235 40.5119 370.987 40.5119Z" fill="white"/>
<path d="M0 136V73.7001H15.308V97.6411H40.94V73.7001H56.248V136H40.94V111.614H15.308V136H0Z" fill="black"/>
<path d="M66.5762 136V73.7001H115.704V86.9611H81.8842V98.1751H104.223V110.991H81.8842V122.739H116.06V136H66.5762Z" fill="black"/>
<path d="M125.069 136V73.7001H174.197V86.9611H140.377V98.1751H162.716V110.991H140.377V122.739H174.553V136H125.069Z" fill="black"/>
<path d="M180.003 87.2281V73.7001H236.072V87.2281H215.691V136H200.383V87.2281H180.003Z" fill="black"/>
<path d="M238.545 126.477L247.089 115.352C250.827 118.378 254.328 120.573 257.591 121.938C260.854 123.303 264.266 123.985 267.826 123.985C271.327 123.985 274.056 123.451 276.014 122.383C278.031 121.315 279.04 119.832 279.04 117.933C279.04 116.212 278.358 114.877 276.993 113.928C275.688 112.979 273.492 112.237 270.407 111.703L256.701 109.3C251.658 108.41 247.771 106.482 245.042 103.515C242.313 100.548 240.948 96.7807 240.948 92.2121C240.948 86.2194 243.203 81.5024 247.712 78.0611C252.281 74.5604 258.54 72.8101 266.491 72.8101C271.119 72.8101 275.777 73.6111 280.464 75.2131C285.211 76.8151 289.275 78.9807 292.657 81.7101L284.558 93.0131C281.295 90.4617 278.091 88.5927 274.946 87.4061C271.861 86.2194 268.686 85.6261 265.423 85.6261C262.338 85.6261 259.875 86.1304 258.036 87.1391C256.256 88.0884 255.366 89.3937 255.366 91.0551C255.366 92.5977 255.93 93.8141 257.057 94.7041C258.244 95.5347 260.142 96.1577 262.753 96.5731L275.658 98.7091C281.651 99.6584 286.19 101.646 289.275 104.672C292.42 107.698 293.992 111.614 293.992 116.42C293.992 122.709 291.53 127.693 286.605 131.372C281.74 135.051 275.094 136.89 266.669 136.89C261.685 136.89 256.701 135.97 251.717 134.131C246.792 132.292 242.402 129.74 238.545 126.477Z" fill="black"/>
</svg>
